  <svg width="17" height="17" viewBox="0 0 17 17" fill="none" xmlns="http://www.w3.org/2000/svg">
<g clip-path="url(#clip0_236_7730)">
<path fill-rule="evenodd" clip-rule="evenodd" d="M3.34673 4.52536H4.39713C4.71595 4.52536 4.97446 4.26724 4.97446 3.94841V0.577158C4.97446 0.258299 4.71595 0 4.39713 0H3.34673C3.02787 0 2.7694 0.258299 2.7694 0.577158V3.94841C2.7694 4.26724 3.02787 4.52536 3.34673 4.52536ZM15.331 3.94933V1.89291C16.1432 1.91739 16.8106 2.58948 16.8106 3.41557V15.4672C16.8106 16.3074 16.1272 17 15.2868 17H1.71128C0.869656 17 0.1875 16.3088 0.1875 15.4672V3.41557C0.1875 2.58948 0.854925 1.91739 1.66715 1.89291V3.94933C1.66715 4.87882 2.42115 5.62784 3.35047 5.62784H4.4126C5.34188 5.62784 6.10587 4.87882 6.10587 3.94933V1.88552H10.8923V3.94933C10.8923 4.87882 11.6563 5.62784 12.5857 5.62784H13.6476C14.577 5.62784 15.331 4.87882 15.331 3.94933ZM14.179 15.3755C14.5429 15.3755 14.8378 15.0804 14.8378 14.7167L14.8377 8.49162C14.8377 8.12777 14.5428 7.83269 14.179 7.83269H2.79009C2.4262 7.83269 2.13134 8.12777 2.13134 8.49162V14.7167C2.13134 15.0804 2.42624 15.3755 2.79009 15.3755H14.179ZM6.19225 9.37864C6.19225 9.16569 6.01952 8.99316 5.80639 8.99316H4.45987C4.24699 8.99316 4.07422 9.16569 4.07422 9.37864V10.725C4.07422 10.9382 4.24699 11.1108 4.45987 11.1108H5.80639C6.01952 11.1108 6.19225 10.9382 6.19225 10.725V9.37864ZM9.55863 9.37875C9.55863 9.1658 9.38586 8.99327 9.17315 8.99327H7.82645C7.61356 8.99327 7.44079 9.1658 7.44079 9.37875V10.7251C7.44079 10.9383 7.61356 11.1109 7.82645 11.1109H9.17315C9.38586 11.1109 9.55863 10.9383 9.55863 10.7251V9.37875ZM12.5371 8.99316C12.75 8.99316 12.9227 9.16569 12.9227 9.37864V10.725C12.9227 10.9382 12.75 11.1108 12.5371 11.1108H11.1906C10.9774 11.1108 10.8047 10.9382 10.8047 10.725V9.37864C10.8047 9.16569 10.9774 8.99316 11.1906 8.99316H12.5371ZM6.19225 12.7441C6.19225 12.5308 6.01952 12.3584 5.80639 12.3584H4.45987C4.24699 12.3584 4.07422 12.5308 4.07422 12.7441V14.0902C4.07422 14.3033 4.24699 14.4758 4.45987 14.4758H5.80639C6.01952 14.4758 6.19225 14.3032 6.19225 14.0902V12.7441ZM9.17315 12.3586C9.38586 12.3586 9.55863 12.5309 9.55863 12.7442V14.0903C9.55863 14.3034 9.38586 14.476 9.17315 14.476H7.82645C7.61356 14.476 7.44079 14.3034 7.44079 14.0903V12.7442C7.44079 12.5309 7.61356 12.3586 7.82645 12.3586H9.17315ZM12.9227 12.7441C12.9227 12.5308 12.75 12.3584 12.5372 12.3584H11.1906C10.9774 12.3584 10.8047 12.5308 10.8047 12.7441V14.0902C10.8047 14.3033 10.9774 14.4758 11.1906 14.4758H12.5372C12.75 14.4758 12.9227 14.3032 12.9227 14.0902V12.7441ZM13.6233 4.52536H12.5729C12.2541 4.52536 11.9956 4.26724 11.9956 3.94841V0.577158C11.9956 0.258299 12.2541 0 12.5729 0H13.6233C13.942 0 14.2005 0.258299 14.2004 0.577158V3.94841C14.2004 4.26724 13.9419 4.52536 13.6233 4.52536Z" fill="#F04973"/>
</g>
<defs>
<clipPath id="clip0_236_7730">
<rect width="17" height="17" fill="white"/>
</clipPath>
</defs>
</svg>