<svg width="54" height="54" viewBox="0 0 54 54" fill="none" xmlns="http://www.w3.org/2000/svg">
<circle cx="27" cy="27" r="27" fill="#F2F5FA"/>
<g opacity="0.5">
<path d="M31.5319 28.1871C31.5319 30.4104 29.7233 32.219 27.5 32.219C25.2767 32.219 23.4688 30.4104 23.4688 28.1871C23.4688 25.9638 25.2767 24.1552 27.5 24.1552C29.7233 24.1552 31.5319 25.9645 31.5319 28.1871ZM40 22.462V33.9136C40 35.4402 38.7622 36.678 37.2356 36.678H17.7644C16.2378 36.678 15 35.4402 15 33.9136V22.462C15 20.9354 16.2378 19.6976 17.7644 19.6976H21.1646V18.7411C21.1646 17.4052 22.2469 16.3222 23.5835 16.3222H31.4165C32.7531 16.3222 33.8354 17.4052 33.8354 18.7411V19.6969H37.2356C38.7622 19.6976 40 20.9354 40 22.462ZM33.6052 28.1871C33.6052 24.8207 30.8664 22.0819 27.5 22.0819C24.1343 22.0819 21.3955 24.8207 21.3955 28.1871C21.3955 31.5535 24.1343 34.2923 27.5 34.2923C30.8664 34.2923 33.6052 31.5535 33.6052 28.1871Z" fill="#8B919E"/>
</g>
</svg>
